<svg xmlns="http://www.w3.org/2000/svg" xmlns:xlink="http://www.w3.org/1999/xlink" xmlns:serif="http://www.serif.com/" viewBox="0 0 32 40" version="1.1" xml:space="preserve" style="" x="0px" y="0px" fill-rule="evenodd" clip-rule="evenodd" stroke-linejoin="round" stroke-miterlimit="2"><path d="M7,2c-0.552,0 -1,0.448 -1,1l0,7.15l-3.646,3.086c-0.014,0.012 -0.023,0.026 -0.036,0.037c-0.029,0.028 -0.057,0.058 -0.084,0.09c-0.018,0.022 -0.034,0.044 -0.05,0.067c-0.012,0.016 -0.025,0.03 -0.036,0.047c-0.012,0.02 -0.02,0.043 -0.031,0.064c-0.012,0.024 -0.025,0.048 -0.035,0.072c-0.016,0.038 -0.028,0.076 -0.039,0.116c-0.008,0.029 -0.018,0.057 -0.023,0.087c-0.009,0.044 -0.012,0.087 -0.014,0.131c-0.001,0.018 -0.006,0.035 -0.006,0.053l0,15c0,0.552 0.448,1 1,1l26,0c0.552,0 1,-0.448 1,-1l0,-15c0,-0.018 -0.005,-0.035 -0.006,-0.053c-0.002,-0.044 -0.005,-0.087 -0.014,-0.131c-0.005,-0.03 -0.015,-0.058 -0.023,-0.087c-0.011,-0.04 -0.023,-0.078 -0.039,-0.116c-0.01,-0.024 -0.023,-0.048 -0.035,-0.072c-0.011,-0.021 -0.019,-0.044 -0.031,-0.064c-0.011,-0.017 -0.024,-0.031 -0.036,-0.047c-0.016,-0.023 -0.032,-0.045 -0.05,-0.067c-0.027,-0.032 -0.055,-0.062 -0.084,-0.09c-0.013,-0.011 -0.022,-0.025 -0.036,-0.037l-3.646,-3.086l0,-7.15c0,-0.552 -0.448,-1 -1,-1l-18,0Zm1,2l16,0l0,11.904l-8,4.922l-8,-4.922l0,-11.904Zm8,1c-0.552,0 -1,0.448 -1,1l0,1l-2,0c-0.552,0 -1,0.448 -1,1l0,4c0,0.552 0.448,1 1,1l5,0l0,2l-5,0c-0.552,0 -1,0.448 -1,1c0,0.552 0.448,1 1,1l2,0l0,1c0,0.552 0.448,1 1,1c0.552,0 1,-0.448 1,-1l0,-1l2,0c0.552,0 1,-0.448 1,-1l0,-4c0,-0.552 -0.448,-1 -1,-1l-5,0l0,-2l5,0c0.552,0 1,-0.448 1,-1c0,-0.552 -0.448,-1 -1,-1l-2,0l0,-1c0,-0.552 -0.448,-1 -1,-1Zm-10,7.771l0,1.903l-1.301,-0.801l1.301,-1.102Zm20,0l1.301,1.102l-1.301,0.801l0,-1.903Zm-22,3.018l4.779,2.941l-4.779,4.096l0,-7.037Zm24,0l0,7.037l-4.779,-4.096l4.779,-2.941Zm-17.432,4.041l4.909,3.022c0.321,0.197 0.725,0.197 1.046,-0l4.909,-3.022l6.568,5.631l0,2.539l-24,0l0,-2.539l6.568,-5.631Z"/><text x="0" y="47" fill="#000000" font-size="5px" font-weight="bold" font-family="'Helvetica Neue', Helvetica, Arial-Unicode, Arial, Sans-serif">Created by Ardiansyah</text><text x="0" y="52" fill="#000000" font-size="5px" font-weight="bold" font-family="'Helvetica Neue', Helvetica, Arial-Unicode, Arial, Sans-serif">from the Noun Project</text></svg>